PathFileType	4	(X/Y/Z)	Patient4_TMGait_0pt3_01_left_21.trc.trc
DataRate	CameraRate	NumFrames	NumMarkers	Units	OrigDataRate	OrigDataStartFrame	OrigNumFrames
52.434456928839	52.434456928839	7	33	mm	52.434456928839	18	       141
Frame#	Time	Sacral			L.Shoulder			Chest			R.Shoulder			Neck			R.ASIS			L.ASIS			R.Thigh.Superior			R.Thigh.Lateral			R.Thigh.Inferior			R.Patella			L.Thigh.Superior			L.Thigh.Lateral			L.Thigh.Inferior			L.Patella			L.Shank.Superior			L.Shank.Lateral			L.Shank.Inferior			R.Shank.Superior			R.Shank.Lateral			R.Shank.Inferior			R.Heel			R.Midfoot.Superior			R.Midfoot.Lateral			R.Toe			L.Heel			L.Midfoot.Lateral			L.Midfoot.Superior			L.Toe			L.Elbow			L.Wrist			R.Elbow			R.Wrist			
		X1	Y1	Z1	X2	Y2	Z2	X3	Y3	Z3	X4	Y4	Z4	X5	Y5	Z5	X6	Y6	Z6	X7	Y7	Z7	X8	Y8	Z8	X9	Y9	Z9	X10	Y10	Z10	X11	Y11	Z11	X12	Y12	Z12	X13	Y13	Z13	X14	Y14	Z14	X15	Y15	Z15	X16	Y16	Z16	X17	Y17	Z17	X18	Y18	Z18	X19	Y19	Z19	X20	Y20	Z20	X21	Y21	Z21	X22	Y22	Z22	X23	Y23	Z23	X24	Y24	Z24	X25	Y25	Z25	X26	Y26	Z26	X27	Y27	Z27	X28	Y28	Z28	X29	Y29	Z29	X30	Y30	Z30	X31	Y31	Z31	X32	Y32	Z32	X33	Y33	Z33	

18	39.634214285714	717.813605604451	998.213586312726	591.387077483193	863.069971943538	1422.357265812851	379.168491272523	989.277616304884	1359.409470040009	525.125139535043	932.818172726870	1440.246884147737	705.763501605195	874.174659214010	1489.537378221673	534.035745898268	957.829086322207	934.731049906605	679.565120866052	914.520464410623	961.755380092303	408.216324288523	970.757850846123	724.056197044118	639.992863422762	880.048569258627	617.572171920878	699.060289898243	943.078146270727	562.758314233081	611.941497514562	929.874822810918	472.073813239444	612.309262831474	998.899019263885	776.332697259796	439.839285632337	953.337488895810	649.158085004386	359.807907864834	1050.372861802457	587.239549390315	428.038176603933	1076.732549537486	519.802101368324	422.387126414374	1053.623708551695	447.566380205962	407.305511885396	980.217353062669	326.701097403341	343.570588156350	1053.860041476070	216.617614355655	398.690138605335	885.918961152424	387.574651109049	616.683347882078	801.011839356636	293.776503358533	676.912884346827	820.592427475646	197.666414495185	607.417566491062	660.509894188268	45.787429552661	576.649793164838	833.121423581286	96.535055605855	612.972373067991	743.034190479916	37.647604365851	651.193828986595	951.326365195337	40.070890284572	643.594948225598	951.447131318928	43.611238194662	421.876674626181	1031.672604076121	44.666766861634	348.019420574076	1107.237342869216	115.783145788719	376.773191242133	1239.748513180732	76.507728532443	359.438879727684	724.885493993809	1091.790602906755	304.072472350457	692.779956357981	835.260111240621	332.633277152247	1088.270816759608	1142.381860553818	826.304342103993	1325.872857066647	1201.828632744996	758.919071503227	
19	39.653285714286	718.387830717536	998.740860062342	590.869540160638	862.319505514171	1422.508961699552	377.792124329552	989.701097432939	1359.261942395452	522.651579684162	934.836628376024	1440.533524146966	703.463399008967	874.634072761748	1489.539988839452	532.378586640231	958.314301995033	934.363197182381	677.969192525913	914.044340033221	961.600535458579	406.796888032180	967.940362329537	723.113010795143	638.893376729791	875.566485675353	618.003961494697	698.660923408932	937.229403627926	562.110909115717	611.540904293897	922.593544631752	472.230803589632	612.031249089440	996.784295038796	774.596090134270	436.727409583467	948.093519083821	647.598778945948	357.566809917400	1045.484422266719	585.084314400037	424.500784853824	1071.375236424912	519.043187165612	419.895998179756	1050.303398352101	447.153419072880	405.416228227858	980.640037502992	323.856908318842	341.930269092031	1057.297016831639	216.215236181617	397.877277746207	879.176071472917	387.885693353326	616.675776713908	794.394707900758	293.990562471532	677.011123338702	814.361519274906	197.838297933231	607.512659355840	654.644616014827	45.574707549349	576.637014166268	827.314827382990	96.537444269067	613.047468968068	737.180380442201	37.539646437302	651.196982745946	945.483533463806	40.150264673828	643.586930691791	958.987429722450	41.868687447798	421.141713154395	1039.944931226067	43.270217356315	348.016438837264	1114.224490500515	115.468702856372	377.007688348665	1247.438395143920	77.675105106469	361.424291767373	719.749137015637	1094.495914530970	303.211316777584	687.121773662769	837.924679667208	333.233983449598	1098.586839045207	1148.211612190713	822.065741243425	1331.252301286860	1218.617621278100	749.405802226897	
20	39.672357142857	719.157562786383	998.911588257304	590.061922526690	861.830515321718	1422.300325503280	376.064633877348	990.237262685697	1358.821720058890	519.986222049507	936.707847759284	1440.477133152505	700.913586541067	875.159010413396	1489.222275831404	530.389592005153	959.042916195977	933.764614505351	676.247168500340	913.841390673153	960.987801649674	405.243813531737	965.577725720829	721.996630172536	637.717020241020	871.547595934862	618.238675496469	698.099943472500	931.884159273110	561.290124901799	611.001647384523	915.873752261913	472.163169795819	611.606129058812	995.023021953695	772.470871491531	433.546911652497	943.072440168375	645.588223150035	355.576800343518	1040.995293100653	582.661814307607	421.107339307779	1066.178790970359	517.632644110067	417.520335948153	1046.672902492319	446.031486792707	403.590953739114	979.536003980739	321.041762075419	340.863123276473	1058.515910851902	215.372564223543	397.291721427320	872.845855080494	388.007007818456	616.531018916477	788.078355087878	294.135813491260	677.041538288782	808.274094329729	197.903151973586	607.548580367826	648.774933438769	45.345518301891	576.615697363037	821.485215980932	96.505195932237	613.070294485518	731.326307362298	37.427493568097	651.200804905358	939.641706239391	40.223906422502	643.581059232848	963.089937597409	40.617979257911	421.116466212480	1044.316537634590	42.145267050251	348.244502026235	1117.952485412552	114.690413285537	377.298368754861	1251.414405868897	77.510740720000	362.512025302380	715.953658053572	1096.381868845454	301.902839353535	683.585801409420	839.621197336920	333.354905393631	1107.956741775764	1153.507959270655	817.756672886020	1335.607254139952	1233.546196609162	740.417898004338	
21	39.691428571429	720.100054412946	998.769900985945	588.988479778661	861.603209750257	1421.756385904605	373.986393822475	990.902859216615	1358.112700016894	517.118496854146	938.477728743225	1440.105072702936	698.121086077210	875.776701210287	1488.618841271747	528.072186368197	960.011539271979	932.955684875071	674.394149301827	913.880413764873	959.972659122901	403.552856341438	963.729178082684	720.730061396764	636.451624595024	868.097006411358	618.266219707921	697.357687875094	927.176344760122	560.309934440435	610.299923185357	909.870683656786	471.852674683045	611.013674648173	993.630308996656	770.074166553644	430.417939732107	938.466609791239	643.272515067935	353.857449078152	1037.035293408281	580.127797383074	417.971632011735	1061.314360292279	515.719855151526	415.325937730149	1042.959087172694	444.317187344542	401.865200383495	977.222737726890	318.251968987334	340.268935006500	1057.869380241114	214.054957518542	396.905658083685	867.043145839519	387.927153644539	616.228020627149	782.162259430554	294.226934728389	676.992205577300	802.382470259037	197.868907783316	607.516928284034	642.914495994708	45.147874252750	576.593958177637	815.648378820503	96.444038182047	613.042815498346	725.484522038395	37.335771295885	651.207995423832	933.812504937004	40.275746276708	643.580851146250	964.127863597619	39.675672779183	421.654016524551	1045.232896022032	41.138637609975	348.612171385056	1118.830274019495	113.376704750215	377.628922670439	1252.176379782364	76.010669649335	362.790290379562	713.461284947441	1097.428213957525	300.165214213761	682.039496806943	840.362626565872	332.974764674005	1116.346350504722	1158.135164124072	813.402981442582	1339.104191917267	1246.534937394059	731.991193466665	
22	39.710500000000	721.183052511845	998.393005545762	587.677147774317	861.635518978188	1420.935681365903	371.573712629711	991.716719611083	1357.183691665973	514.043647293452	940.211681455870	1439.475705763669	695.097410636624	876.522523212396	1487.794011295640	525.442734941676	961.197779806256	931.979124687959	672.400022307050	914.116922895253	958.659320543277	401.715478728685	962.417095319561	719.356964559046	635.073825382317	865.284759031005	618.099485452624	696.414497504667	923.201241569204	559.204375535099	609.410956530810	904.693359512526	471.306775439212	610.234842100067	992.620589793165	767.571301198592	427.445661485758	934.478021655578	640.842547058120	352.389572702754	1033.730339733874	577.658080159629	415.176056313684	1056.953044991298	513.497521777159	413.359137801388	1039.403259169063	442.188328557404	400.265765605940	974.112547928327	315.548446175051	339.998515921520	1055.791617836498	212.326117881153	396.677416990366	861.851592194546	387.657182899818	615.749844383052	776.722307560173	294.294487876913	676.850435916985	796.731431530350	197.760659788805	607.412924176745	637.078715993170	45.043552618299	576.580802472162	809.827344977145	96.366648814959	612.973643845439	719.668644796151	37.296178426670	651.221290574066	928.008192258958	40.288981460266	643.589255395673	962.609259128478	38.942023444174	422.560744696323	1043.311043581909	40.173957430479	349.029772353663	1117.387302312480	111.566648386997	377.984785934146	1250.348191052087	73.327882425458	362.443401088087	712.222956741813	1097.667869345395	298.029187558936	682.329327889108	840.217834155023	332.068975910441	1123.745113436708	1161.989252931998	809.023060366006	1341.913832298484	1257.542532654213	724.143746916976	
23	39.729571428571	722.368674348562	997.882455443071	586.153420292056	861.921064806347	1419.925190272008	368.859255418663	992.695853658181	1356.104851872774	510.765617519491	941.984419346992	1438.672402816426	691.860459735582	877.433812323952	1486.835284244595	522.532322514542	962.562143532756	930.896917957503	670.250381416181	914.500954915434	957.189598363861	399.718551824508	961.620518261698	717.938253984658	633.552764917486	863.132827595384	617.776469590686	695.254829198732	919.999098031222	558.025237814745	608.314011543172	900.388826687736	470.560656734271	609.257604195567	992.011125276103	765.162698736512	424.708580142950	931.302508973507	638.510907407476	351.122895629528	1031.196429618230	575.431412157919	412.765970991735	1053.259818245111	511.180547903530	411.645427730242	1036.239890814189	439.858597085144	398.813286485570	970.657066805006	313.040990631785	339.882903756189	1052.742922744022	210.324109873056	396.562399738182	857.311415398800	387.232159420819	615.088755730257	771.798668801971	294.384115183098	676.605825264139	791.352909669596	197.620402378945	607.238369290372	631.283864600147	45.103776717924	576.586049138987	804.050821172635	96.292161439272	612.878253448126	713.892435317801	37.344950169251	651.243937991364	922.239973134629	40.248248530269	643.608236046495	959.114193508568	38.376276404097	423.632595428092	1039.255130184587	39.238644221007	349.422548547914	1114.199137118327	109.394205747016	378.352252810790	1246.600156783049	69.757949429348	361.703682816711	712.173985396726	1097.184051767623	295.535116180877	684.284985270995	839.304896440924	330.613409001074	1130.167304944269	1165.006442747374	804.628322123279	1344.212009982490	1266.558631475361	716.876111438002	
24	39.748642857143	723.619011492032	997.351514507502	584.433041937508	862.448026839652	1418.831362366964	365.889987090154	993.851493457069	1354.961314599056	507.299129952192	943.866398105742	1437.793260871280	688.436120951241	878.542316628408	1485.842973893985	519.386785792151	964.052493374349	929.784228016603	667.928431791864	914.988011403567	955.723692238813	397.544945725988	961.274093683528	716.545883556904	631.857651608555	861.606216377974	617.359336580295	693.872332572811	917.545691100582	556.837739761098	607.000509125881	896.933365678184	469.675542990865	608.084874332755	991.820786389008	763.058761704119	422.251654629491	929.106945481288	636.480023520125	349.989527588572	1029.526168411061	573.605139735264	410.750533941245	1050.378634115042	508.975924776434	410.193234572826	1033.668652879103	437.542650336332	397.527018121901	967.282116596583	310.859140402208	339.766100186114	1049.149709535877	208.223258985804	396.525127401775	853.411564633327	386.709458982742	614.252151525673	767.386802377166	294.553320240043	676.254655752471	786.261211393451	197.504001611862	607.004831115842	625.545800160546	45.402680672768	576.620264910368	798.350673075834	96.245073524359	612.779596789868	708.168519261643	37.519060151617	651.280387467165	916.516140941145	40.141879607249	643.638497036430	954.223971679696	37.967223628273	424.689556194226	1033.762612919584	38.362016832735	349.739483608810	1109.812544439425	107.052209326702	378.719511209795	1241.568680295718	65.688832382627	360.799881038923	713.227619717010	1096.104380555678	292.728129365462	687.724179436885	837.782466435553	328.589285549976	1135.652261987790	1167.169544170583	800.224507247729	1346.179919455958	1273.598755932401	710.172539163007	
